<svg xmlns="http://www.w3.org/2000/svg" width="700" height="700">
    <path fill="#fff" d="M0 0h700v700H0z" paint-order="fill markers stroke"/>
    <path fill="#bd0000" d="M101.402 238.9L50 463.164h361.52c-14.735-1.287-26.367-6.459-33.298-15.887-1.286-1.744-2.348-3.623-3.28-5.588a193.179 193.179 0 01-1.708-4.388c-1.478-4.7-2.067-9.914-1.801-15.471.738-15.487 8.006-33.91 20.597-53.203 13.375-20.502 32.759-41.99 56.76-61.932 5.379-4.465 10.941-8.875 16.763-13.162 7.198-5.295 14.45-10.17 21.707-14.731 26.734-16.831 53.402-28.609 77.032-34.591-22.58 7.367-47.95 19.873-73.015 36.9-.9.609-1.792 1.232-2.678 1.847-13.907 9.636-26.506 19.869-37.5 30.203-35.38 33.267-54.08 67.738-45.583 87.933a25.224 25.224 0 002.17 3.971c9.133 13.433 31.769 15.756 60.453 8.545 1.951-.488 3.902-1.04 5.912-1.617 9.163-2.646 18.89-6.218 28.91-10.622a285.148 285.148 0 007.298-3.325c.25-.119.487-.237.738-.37 31.626-15.714 55.931-33.795 61.193-44.66 1.153-2.362 1.43-4.376.646-5.957-3.754-7.61-30.02-2.469-61.839 11.316a329.306 329.306 0 00-7.759 3.464 246.367 246.367 0 016.604-5.912 223.997 223.997 0 0111.315-9.144 225.831 225.831 0 0118.705-12.747c28.995-21.874 43.653-42.568 40.594-50.246-.576-1.448-1.803-2.443-3.694-3.048-6.045-1.924-17.077.371-30.481 5.864-11.054 4.535-23.75 11.26-36.623 19.628l-1.755 1.155-.324.184-6.188 4.111 3.556-6.512c5.277-9.658 13.87-19.734 24.57-29.095 7.847-6.844 16.812-13.293 26.462-18.936 3.65-2.136 7.296-4.12 10.946-5.91 3.739-1.827 7.48-3.45 11.13-4.897 10.605-4.193 20.728-6.742 29.557-7.434h-506.21zm265.181.323c-1.447 22.104 2.838 54.48 12.562 90.426a501.64 501.64 0 005.68 19.489 486.605 486.605 0 003.972 12.007c-.797 1.174-1.601 2.34-2.354 3.51-12.134 18.594-19.226 36.167-21.014 51.448-5.128-17.172-8.99-35.982-11.176-55.928a340.28 340.28 0 01-1.432-16.948c-2.394-40.557 2.9-77.322 13.763-104.004zm-242.137 28.772c.278-.006.55 0 .832 0h54.635c4.67 0 8.28.875 10.853 2.633 2.557 1.767 3.515 4.053 2.91 6.834l-6.513 29.419h-19.257l6.327-28.634h-48.215l-17.412 78.696-6.28 28.495h48.169l.046-.185 9.652-43.596h-22.63l2.17-9.837h41.888l-12.007 54.403a7.683 7.683 0 01-.832 2.17c-.99 1.803-2.717 3.348-5.126 4.62-3.34 1.757-7.337 2.631-12.008 2.631H97.061c-4.67 0-8.282-.874-10.854-2.632-2.556-1.759-3.53-4.004-2.909-6.789l24.061-108.76c.62-2.782 2.557-5.068 5.912-6.835.118-.065.251-.078.369-.139 3.062-1.534 6.656-2.396 10.807-2.494zm85.624 0h68.766c4.61 0 8.235.875 10.807 2.633 2.586 1.767 3.576 4.053 2.956 6.834l-12.84 58.006c-.606 2.764-2.587 5.018-5.957 6.788-3.37 1.777-7.336 2.68-11.961 2.68h-49.97l-9.652 43.55-1.57 7.158h-18.842l1.432-6.465 26.832-121.184zm94.998 0h18.842l-21.336 96.384-4.664 21.059h45.075a268.209 268.209 0 001.615 10.206h-67.796l5.357-24.2 22.906-103.45zm-78.419 10.252l-12.514 56.436h46.967l12.47-56.436H226.65zm-39.485 126.264c.184-.006.367 0 .554 0 2.186 0 4.097.384 5.633 1.109 1.64.769 2.814 1.91 3.464 3.417.636 1.463.802 3.124.462 4.942l-.139.693h-5.402l.046-.647c.14-1.27-.018-2.268-.508-2.956a3.064 3.064 0 00-.232-.277 3.013 3.013 0 00-.462-.37c-.755-.476-1.938-.738-3.463-.738-2.024 0-3.538.352-4.572 1.062-1.006.694-1.64 1.47-1.847 2.4-.207.947.132 1.445.369 1.71l.046.047c.3.254 1.34.853 4.572 1.616 2.926.709 4.864 1.347 5.958 1.894 1.655.842 2.811 1.933 3.417 3.278.607 1.33.74 2.888.37 4.573-.37 1.64-1.206 3.153-2.448 4.571-1.226 1.419-2.787 2.542-4.664 3.326a15.77 15.77 0 01-6.004 1.2c-2.66 0-4.796-.402-6.465-1.2-1.745-.828-3.002-2.134-3.742-3.834-.708-1.655-.86-3.534-.461-5.588l.138-.646h5.311l-.046.646c-.132 1.227-.002 2.217.323 2.956.31.71.902 1.297 1.848 1.755 1.006.487 2.261.739 3.695.739 1.285 0 2.46-.217 3.51-.6 1.034-.37 1.856-.858 2.447-1.478.577-.621.915-1.277 1.062-1.986.147-.635.113-1.173-.139-1.616-.28-.474-.836-.893-1.708-1.247l-4.526-1.34c-2.527-.636-4.229-1.241-5.219-1.847-1.345-.798-2.314-1.822-2.816-3.048-.503-1.212-.557-2.555-.232-4.018.34-1.567 1.096-3.058 2.263-4.387 1.182-1.345 2.708-2.4 4.526-3.094a15.899 15.899 0 015.08-1.017zm48.491.093c.293-.023.567 0 .878 0l3.325.37 1.108.091-1.616 4.11-.323.647-2.54-.23c-.75 0-1.301.115-1.664.369-.023.017-.069.073-.091.093-.049.042-.13.116-.185.184-.223.291-.494.813-.693 1.755 0 0-.096.399-.185.739h3.972l-1.016 4.572h-3.879L228.82 434.9h-5.357s3.483-15.63 3.926-17.596h-3.095l1.016-4.572h3.048c.148-.636.37-1.432.37-1.432.325-1.478.665-2.54 1.109-3.279a6.971 6.971 0 012.539-2.494c.888-.516 2.012-.825 3.28-.923zm12.792.23l-1.754 7.898h3.463l-1.015 4.572h-3.464c-.281 1.27-2.494 11.13-2.494 11.13s-.185 1.185-.185 1.524v.092c.002.003.045-.002.047 0l.554.047 2.54-.186-.278 4.111.047.74-3.649.415c-1.448 0-2.51-.236-3.279-.739-.812-.532-1.285-1.238-1.478-2.125-.03-.162-.092-.399-.092-.738 0-.665.126-1.791.555-3.74 0 0 1.941-8.699 2.355-10.53h-2.54l1.015-4.573h2.54a2214.079 2214.079 0 011.063-4.71l4.295-2.264zm-170.183.185h20.783l-1.155 5.172H82.697a3074.05 3074.05 0 00-1.523 6.836h13.161l-1.154 5.172H80.018c-.28 1.286-2.817 12.701-2.817 12.701h-5.588l6.65-29.88zm27.848 7.297c.209-.026.437 0 .647 0 1.33 0 2.559.404 3.74 1.247l.74.508-2.864 4.71-.784-.554a3.376 3.376 0 00-1.848-.554c-.562 0-1.084.2-1.616.555a4.081 4.081 0 00-1.386 1.524c-.62 1.137-1.075 2.412-1.385 3.787L98.862 434.9h-5.357l4.94-22.168h4.99s-.173.672-.231.923c.236-.177.485-.42.693-.554a5.707 5.707 0 012.216-.785zm15.887 0c.323-.025.64 0 .97 0 3.015 0 5.296 1.057 6.789 3.14.93 1.345 1.432 3.008 1.432 4.988 0 1.094-.135 2.27-.416 3.557l-.416 1.616h-15.054a10.166 10.166 0 00-.047.923c0 1.153.237 2.06.74 2.725.238.326.515.618.831.832.595.387 1.364.6 2.262.6 1.094 0 2.054-.301 2.956-.877.858-.547 1.677-1.422 2.402-2.633h5.726l-.508 1.109c-1.094 2.216-2.619 3.945-4.526 5.172-1.906 1.227-4.184 1.893-6.696 1.893-3.266 0-5.697-1.056-7.205-3.14-1.492-2.04-1.814-4.858-1.016-8.406.798-3.605 2.39-6.487 4.71-8.497 2.08-1.803 4.44-2.803 7.067-3.002zm24.062 0c.322-.025.64 0 .97 0 3.014 0 5.295 1.057 6.788 3.14.931 1.345 1.432 3.008 1.432 4.988 0 1.079-.135 2.24-.416 3.51l-.416 1.663h-15.055l-.046.6c-.011.078.005.196 0 .277v.046c0 .222.031.44.046.647.074.842.294 1.547.693 2.078.076.104.148.231.231.323.676.725 1.635 1.11 2.863 1.11a5.297 5.297 0 002.955-.878c.858-.547 1.678-1.422 2.402-2.633h5.772l-.554 1.109c-1.092 2.216-2.619 3.945-4.525 5.172-1.907 1.227-4.185 1.893-6.697 1.893-3.266 0-5.697-1.056-7.205-3.14-.975-1.33-1.43-3.025-1.43-5.034 0-.31.016-.644.046-.97a16.683 16.683 0 01.369-2.4c.798-3.592 2.344-6.489 4.664-8.5 2.08-1.802 4.486-2.802 7.113-3zm65.533 0c.33-.026.633 0 .97 0 3.073 0 5.437 1.04 6.973 3.094 1.522 2.054 1.892 4.826 1.109 8.313-.607 2.72-1.482 4.916-2.678 6.512-1.198 1.596-2.724 2.9-4.527 3.787-1.788.887-3.681 1.339-5.588 1.339-3.133 0-5.466-1.071-6.973-3.14-.976-1.315-1.479-3.009-1.479-5.034 0-1.093.12-2.255.416-3.556.887-3.96 2.697-6.977 5.357-8.913 1.953-1.41 4.11-2.224 6.42-2.402zm81.143 0c.39-.024.75 0 1.155 0 1.862 0 3.325.189 4.434.647 1.182.472 2.02 1.141 2.493 1.94.458.754.693 1.678.693 2.816l-.554 3.372-1.016 4.572c-.872 3.902-1.064 5.365-1.11 5.91-.043.74.026 1.461.232 2.126l.37 1.201h-5.45l-.231-.693c-.088-.325-.062-.739-.092-1.109-1.035.636-2.071 1.2-3.002 1.525-1.374.473-2.801.738-4.25.738-2.512 0-4.371-.653-5.494-1.94-.858-.945-1.248-2.101-1.248-3.417 0-.502.067-1.022.185-1.57.251-1.123.708-2.163 1.432-3.094.71-.916 1.548-1.67 2.494-2.217.916-.546 1.938-.934 3.002-1.2l3.278-.555c2.528-.295 4.414-.663 5.773-1.062a2.67 2.67 0 01.093-.323c.214-.952.187-1.666-.047-2.032-.017-.024-.073-.072-.092-.093-.05-.053-.126-.137-.184-.185-.557-.44-1.504-.646-2.772-.646-1.433 0-2.493.234-3.232.693-.724.458-1.396 1.297-1.986 2.493h-5.588l.508-1.108c.664-1.537 1.457-2.811 2.447-3.787.99-.975 2.328-1.731 3.88-2.262a15.38 15.38 0 013.88-.74zm23.415 0c.208-.026.437 0 .646 0 1.346 0 2.605.404 3.788 1.247l.692.508-2.863 4.71-.785-.554c-.577-.37-1.166-.554-1.801-.554-.562 0-1.117.2-1.663.555-.561.37-.97.858-1.34 1.524a15.165 15.165 0 00-1.384 3.787l-2.54 11.361h-5.358l4.941-22.168h4.988s-.126.672-.185.923c.237-.177.472-.42.694-.554.704-.427 1.425-.694 2.17-.785zm15.84 0c.323-.025.64 0 .97 0 3.015 0 5.311 1.057 6.79 3.14.946 1.345 1.43 3.008 1.43 4.988 0 1.094-.18 2.27-.461 3.557l-.37 1.616h-15.055c-.03.31-.093.642-.093.923 0 1.153.252 2.06.74 2.725.076.104.193.231.277.323.048.052.133.137.185.186.66.6 1.56.923 2.678.923 1.094 0 2.054-.301 2.956-.877.858-.547 1.662-1.422 2.401-2.633h5.773l-.555 1.109c-1.092 2.216-2.633 3.945-4.525 5.172-1.92 1.227-4.169 1.893-6.696 1.893-3.267 0-5.65-1.056-7.159-3.14-1.492-2.04-1.846-4.858-1.062-8.406.798-3.605 2.344-6.487 4.664-8.497 2.093-1.803 4.489-2.803 7.113-3.002zm-80.866.416h5.496s.678 13.155.693 13.347c.222-.471.394-.867.416-.924l6.05-12.423h5.034s.46 12.996.46 13.069c.15-.265 6.882-13.07 6.882-13.07h5.45L269.599 434.9h-4.94s-.48-12.02-.51-12.701c-2.039 4.183-6.187 12.701-6.187 12.701h-5.08l-1.756-22.168zm-129.034 4.202c-1.274.054-2.43.513-3.51 1.387-.858.68-1.436 1.612-1.894 2.632h9.098c.015-.163.046-.36.046-.509 0-.842-.149-1.496-.416-1.94-.65-1.063-1.614-1.57-3.047-1.57-.087 0-.193-.003-.277 0zm24.06 0c-1.272.054-2.429.513-3.51 1.387-.856.68-1.42 1.612-1.893 2.632h9.098c.015-.163.047-.36.047-.509 0-.842-.135-1.496-.416-1.94a3.716 3.716 0 00-.462-.6c-.617-.637-1.466-.97-2.586-.97-.087 0-.192-.003-.277 0zm186.118 0c-1.31.04-2.532.484-3.649 1.387-.842.68-1.42 1.612-1.893 2.632h9.051c.015-.163.047-.36.047-.509 0-.842-.135-1.496-.416-1.94-.635-1.048-1.615-1.554-3.048-1.57zm-121 .093c-1.222.145-2.357.702-3.417 1.662-1.27 1.153-2.193 2.964-2.725 5.358-.222 1.005-.323 1.863-.323 2.632 0 1.05.201 1.874.6 2.494.106.16.248.328.37.462.657.698 1.574 1.062 2.724 1.062 1.493 0 2.808-.556 4.065-1.709 1.27-1.167 2.178-2.996 2.725-5.45.503-2.246.432-3.923-.277-4.987-.68-1.035-1.674-1.524-3.048-1.524-.234 0-.467-.026-.694 0zm83.453 8.081c-1.257.341-2.663.627-4.526.878-1.39.207-2.379.425-2.955.647a3.314 3.314 0 00-1.248.877c-.324.37-.543.757-.646 1.201a3.24 3.24 0 00-.047.508v.046c.002.035-.003.105 0 .139.01.067.029.169.047.231.007.02.038.072.046.092.017.04.026.1.046.139.022.037.068.103.093.138.039.053.09.135.138.185.37.414 1.107.6 2.17.6 1.168 0 2.291-.221 3.326-.739a6.465 6.465 0 002.447-2.123c.444-.622.799-1.578 1.11-2.819z"/>
    <path fill="none" stroke="#bd0000" stroke-width="7.38914316" d="M370.1 439.925c.6 1.543 1.2 3.082 1.824 4.588.962 2.045 2.075 4.004 3.412 5.833 7.225 9.82 19.323 15.197 34.684 16.536h16.523c5.224-.408 10.698-1.168 16.373-2.278 9.786-1.914 20.16-4.853 30.934-8.781a276.88 276.88 0 0025.06-10.589c18.534-8.885 37.682-20.345 56.467-34.175A374.805 374.805 0 00573.2 397.09a354.9 354.9 0 0015.023-13.225c13.36-12.875 23.447-25.953 29.159-37.435 5.949-11.957 7.136-22.181 2.262-28.621-2.987-3.953-7.986-6.072-14.423-6.57 28.996-21.758 45.894-48.151 39.832-64.792-1.924-5.31-6.162-9.272-12.236-11.463-2.7-.971-5.737-1.586-9.049-1.867h-8.924c-12.461.9-30.582 5.362-45.955 12.896"/>
</svg>
