<svg xmlns="http://www.w3.org/2000/svg" width="273.067" height="273.067" viewBox="0 0 256 256">
    <path fill="none" fill-opacity=".902" stroke="#fff" stroke-linecap="square" stroke-linejoin="bevel" stroke-miterlimit="0" stroke-width="10.497" d="M127.48 170.09c-374.605 0 266.167-308.53 32.605-15.556-233.561 292.974-75.606-400.489 7.752-35.156C251.194 484.71-192.236-71.156 145.27 91.433c337.507 162.588-373.088 162.916-35.581.327C447.195-70.828 4.093 484.054 87.449 118.721c83.358-365.333 242.514 329.906 8.952 36.932s405.682 14.436 31.078 14.436zM9.497 91.374C23.53 48.174 82.592 5.249 128 5.249c45.407 0 104.47 42.925 118.502 86.125 14.032 43.2-8.529 112.654-45.264 139.353-36.736 26.7-109.74 26.7-146.477 0C18.026 204.028-4.534 134.573 9.498 91.374z"/>
</svg>
