<svg xmlns="http://www.w3.org/2000/svg" xmlns:xlink="http://www.w3.org/1999/xlink" width="100pt" height="100pt" version="1.0">
    <defs>
        <linearGradient id="c">
            <stop offset="0" stop-color="#b8b8b8" stop-opacity=".498"/>
            <stop offset="1" stop-color="#7f7f7f" stop-opacity="0"/>
        </linearGradient>
        <linearGradient id="a">
            <stop offset="0" stop-color="#ffd43b"/>
            <stop offset="1" stop-color="#ffe873"/>
        </linearGradient>
        <linearGradient id="b">
            <stop offset="0" stop-color="#5a9fd4"/>
            <stop offset="1" stop-color="#306998"/>
        </linearGradient>
        <linearGradient id="e" x1="150.961" x2="112.031" y1="192.352" y2="137.273" gradientTransform="matrix(.56254 0 0 .56797 -9.4 -5.305)" gradientUnits="userSpaceOnUse" xlink:href="#a"/>
        <linearGradient id="d" x1="26.649" x2="135.665" y1="20.604" y2="114.398" gradientTransform="matrix(.56254 0 0 .56797 -9.4 -5.305)" gradientUnits="userSpaceOnUse" xlink:href="#b"/>
    </defs>
    <path fill="#fff" stroke-linecap="square" stroke-width="1.119" d="M.56.56h133.881v133.881H.56z" paint-order="fill markers stroke"/>
    <path fill="url(#d)" d="M60.51 6.398c-4.583.021-8.96.412-12.812 1.094-11.347 2.004-13.407 6.2-13.407 13.937v10.219h26.813v3.406H24.229c-7.793 0-14.616 4.684-16.75 13.594-2.462 10.213-2.571 16.586 0 27.25 1.906 7.938 6.457 13.594 14.25 13.594h9.219v-12.25c0-8.85 7.657-16.657 16.75-16.657h26.78c7.456 0 13.407-6.138 13.407-13.625V21.43c0-7.267-6.13-12.726-13.406-13.938-4.606-.767-9.385-1.115-13.969-1.094zm-14.5 8.219c2.77 0 5.031 2.298 5.031 5.125 0 2.816-2.261 5.093-5.03 5.093-2.78 0-5.032-2.277-5.032-5.093 0-2.827 2.252-5.125 5.031-5.125z" transform="translate(5.495 4.075)"/>
    <path fill="url(#e)" d="M91.229 35.054V46.96c0 9.231-7.826 17-16.75 17H47.698c-7.336 0-13.407 6.279-13.407 13.625v25.532c0 7.266 6.319 11.54 13.407 13.625 8.487 2.495 16.626 2.946 26.78 0 6.751-1.955 13.407-5.888 13.407-13.625V92.898H61.104v-3.406h40.187c7.793 0 10.697-5.436 13.407-13.594 2.799-8.399 2.68-16.476 0-27.25-1.926-7.757-5.604-13.594-13.407-13.594zM76.166 99.71c2.78 0 5.032 2.278 5.032 5.094 0 2.827-2.252 5.125-5.032 5.125-2.77 0-5.03-2.298-5.03-5.125 0-2.816 2.26-5.094 5.03-5.094z" transform="translate(5.495 4.075)"/>
</svg>
